<svg width="500" height="500" viewBox="0 0 500 500" fill="none" xmlns="http://www.w3.org/2000/svg">
<rect width="500" height="500" rx="80" fill="black"/>
<path fill-rule="evenodd" clip-rule="evenodd" d="M255.256 390.045C316.73 388.972 365.966 353.839 365.228 311.574L363.892 235.045L141.278 238.931L142.613 315.46C143.351 357.725 193.783 391.118 255.256 390.045Z" fill="white"/>
<path fill-rule="evenodd" clip-rule="evenodd" d="M136.768 112.071C167.505 111.535 192.953 141.547 193.609 179.106L194.796 247.112L139.142 248.083C108.406 248.62 82.9573 218.607 82.3017 181.048C81.6461 143.49 106.032 112.608 136.768 112.071Z" fill="#A259FF"/>
<path fill-rule="evenodd" clip-rule="evenodd" d="M358.95 111.969C328.214 112.506 303.813 142.531 304.451 179.033L305.604 245.126L361.258 244.155C391.994 243.618 416.395 213.593 415.758 177.091C415.121 140.588 389.687 111.432 358.95 111.969Z" fill="#FFB031"/>
<path fill-rule="evenodd" clip-rule="evenodd" d="M247.685 114.906C278.422 114.369 303.851 143.303 304.483 179.531L305.628 245.127L194.321 247.07L193.176 181.473C192.544 145.246 216.948 115.442 247.685 114.906Z" fill="#F97D92"/>
</svg>
